<?xml version="1.0" standalone="no"?>
<!DOCTYPE svg PUBLIC "-//W3C//DTD SVG 20010904//EN"
 "http://www.w3.org/TR/2001/REC-SVG-20010904/DTD/svg10.dtd">
<svg version="1.0" xmlns="http://www.w3.org/2000/svg"
 width="150.000000pt" height="150.000000pt" viewBox="0 0 150.000000 150.000000"
 preserveAspectRatio="xMidYMid meet">
<metadata>
Created by potrace 1.11, written by Peter Selinger 2001-2013
</metadata>
<g transform="translate(0.000000,150.000000) scale(0.100000,-0.100000)"
fill="#000000" stroke="none">
<path d="M90 1374 c0 -111 -2 -122 -19 -127 -31 -8 -53 -50 -42 -79 8 -20 16
-25 43 -25 47 1 54 21 51 142 -4 119 -14 106 92 106 108 0 105 1 101 -23 -3
-13 -5 -25 -5 -28 -1 -4 -16 -4 -35 -2 -27 3 -37 0 -46 -18 -15 -28 10 -69 43
-71 65 -4 69 3 72 108 1 48 7 98 13 110 7 12 12 24 12 26 0 3 -63 4 -140 4
l-140 -2 0 -121z"/>
<path d="M707 1314 c-3 -4 -34 -13 -69 -20 -35 -8 -70 -16 -78 -19 -8 -2 -35
-9 -58 -15 -89 -22 -164 -60 -211 -110 -26 -27 -48 -55 -48 -62 -3 -41 -17
-111 -34 -167 -19 -63 -18 -92 4 -120 7 -7 12 -27 12 -43 0 -16 7 -33 14 -37
11 -7 10 -12 -6 -28 -12 -12 -20 -35 -21 -64 -2 -36 3 -50 28 -81 18 -21 38
-38 46 -38 10 0 14 -12 12 -45 -1 -31 4 -51 17 -65 9 -10 20 -18 24 -18 3 1
16 -1 27 -5 15 -5 24 -20 29 -50 9 -48 8 -42 28 -119 11 -42 12 -58 4 -58 -7
0 -25 -10 -40 -23 -22 -17 -29 -33 -34 -75 l-6 -52 102 0 c62 0 101 4 101 10
0 6 12 8 28 4 51 -11 72 -12 76 -5 7 11 76 13 76 1 0 -6 30 -10 74 -10 76 0
90 7 97 44 3 13 16 23 39 28 48 12 77 27 77 41 1 19 14 140 18 167 2 14 7 63
10 110 3 47 9 88 13 92 9 8 85 -59 101 -90 23 -43 86 -48 110 -9 8 11 15 38
17 58 2 21 11 59 20 84 19 58 25 137 10 156 -6 8 -29 27 -51 44 -46 35 -65 53
-87 84 -15 22 -15 25 2 43 13 14 25 18 40 13 23 -7 53 11 43 28 -3 6 -1 7 5 3
6 -3 9 -14 7 -24 -13 -68 -10 -86 15 -99 14 -7 32 -13 41 -13 22 0 37 -20 42
-55 2 -20 14 -37 35 -51 17 -12 28 -24 25 -28 -4 -3 1 -6 9 -6 18 0 29 22 20
37 -4 6 -17 13 -29 17 -13 4 -23 10 -24 14 -6 55 -20 81 -49 94 -30 13 -32 16
-32 43 0 65 3 76 27 87 21 9 25 18 25 52 0 23 7 50 15 60 37 49 2 87 -99 110
-45 11 -54 10 -69 -4 -9 -9 -32 -17 -50 -18 -40 -1 -75 -38 -55 -58 7 -7 30
-15 51 -17 44 -5 57 -14 33 -23 -9 -3 -16 -12 -16 -19 0 -7 -9 -15 -21 -18
-13 -3 -20 -12 -18 -24 4 -23 -10 -63 -22 -64 -39 -6 -68 -20 -72 -37 -3 -9
-5 2 -6 25 -1 36 4 47 29 70 36 31 37 41 9 94 -15 31 -25 40 -42 37 -13 -2
-33 8 -51 24 -18 17 -33 25 -40 20 -6 -5 -20 -12 -31 -15 -17 -6 -18 -5 -5 6
23 19 80 95 80 106 0 15 -86 71 -109 71 -11 0 -31 -4 -45 -10 -14 -5 -26 -6
-26 -1 0 7 -26 15 -80 25 -3 1 -10 4 -16 8 -6 4 -14 5 -17 2z m363 -570 c0
-22 -16 -17 -17 6 -1 11 2 18 8 15 5 -4 9 -13 9 -21z m-705 -304 c3 -5 1 -10
-4 -10 -6 0 -11 5 -11 10 0 6 2 10 4 10 3 0 8 -4 11 -10z"/>
<path d="M1270 1250 c-11 -11 -20 -27 -20 -35 0 -8 9 -19 20 -25 11 -6 20 -20
20 -31 0 -15 5 -20 23 -17 12 2 22 8 22 13 1 6 9 24 18 42 17 31 16 33 -5 53
-28 25 -52 26 -78 0z"/>
</g>
</svg>
